<mxfile host="65bd71144e">
    <diagram id="E5IfbpX1pAIKlM7t8Ae7" name="ページ1">
        <mxGraphModel dx="1281" dy="979" grid="1" gridSize="10" guides="1" tooltips="1" connect="1" arrows="1" fold="1" page="1" pageScale="1" pageWidth="827" pageHeight="1169" math="0" shadow="0">
            <root>
                <mxCell id="0"/>
                <mxCell id="1" parent="0"/>
                <mxCell id="2" value="&lt;font face=&quot;Times New Roman&quot;&gt;&lt;span style=&quot;vertical-align: sub ; font-size: 20px&quot;&gt;x&lt;/span&gt;&lt;span style=&quot;font-size: 16.6667px&quot;&gt;&lt;sub&gt;1&lt;/sub&gt;&lt;/span&gt;&lt;/font&gt;" style="ellipse;whiteSpace=wrap;html=1;aspect=fixed;" vertex="1" parent="1">
                    <mxGeometry x="160" y="320" width="80" height="80" as="geometry"/>
                </mxCell>
                <mxCell id="3" value="&lt;span style=&quot;font-family: &amp;#34;times new roman&amp;#34; ; font-size: 20px&quot;&gt;x&lt;/span&gt;&lt;span style=&quot;font-family: &amp;#34;times new roman&amp;#34; ; font-size: 16.6667px&quot;&gt;&lt;sub&gt;2&lt;/sub&gt;&lt;/span&gt;" style="ellipse;whiteSpace=wrap;html=1;aspect=fixed;" vertex="1" parent="1">
                    <mxGeometry x="160" y="560" width="80" height="80" as="geometry"/>
                </mxCell>
                <mxCell id="4" value="&lt;font face=&quot;Times New Roman&quot;&gt;&lt;span style=&quot;font-size: 20px&quot;&gt;y&lt;/span&gt;&lt;/font&gt;" style="ellipse;whiteSpace=wrap;html=1;aspect=fixed;" vertex="1" parent="1">
                    <mxGeometry x="440" y="440" width="80" height="80" as="geometry"/>
                </mxCell>
                <mxCell id="6" value="" style="endArrow=classic;html=1;entryX=0;entryY=0.5;entryDx=0;entryDy=0;exitX=1;exitY=0.5;exitDx=0;exitDy=0;" edge="1" parent="1" source="2" target="4">
                    <mxGeometry width="50" height="50" relative="1" as="geometry">
                        <mxPoint x="250" y="370" as="sourcePoint"/>
                        <mxPoint x="370" y="520" as="targetPoint"/>
                    </mxGeometry>
                </mxCell>
                <mxCell id="7" value="" style="endArrow=classic;html=1;entryX=0;entryY=0.5;entryDx=0;entryDy=0;exitX=1;exitY=0.5;exitDx=0;exitDy=0;" edge="1" parent="1" source="3">
                    <mxGeometry width="50" height="50" relative="1" as="geometry">
                        <mxPoint x="240" y="360" as="sourcePoint"/>
                        <mxPoint x="440" y="480" as="targetPoint"/>
                    </mxGeometry>
                </mxCell>
                <mxCell id="8" value="&lt;font style=&quot;font-size: 20px&quot; face=&quot;Times New Roman&quot;&gt;w&lt;sub&gt;1&lt;/sub&gt;&lt;/font&gt;" style="text;html=1;align=center;verticalAlign=middle;resizable=0;points=[];autosize=1;strokeColor=none;" vertex="1" parent="1">
                    <mxGeometry x="311" y="380" width="40" height="20" as="geometry"/>
                </mxCell>
                <mxCell id="9" value="&lt;font face=&quot;Times New Roman&quot; style=&quot;font-size: 20px&quot;&gt;w&lt;sub&gt;2&lt;/sub&gt;&lt;/font&gt;" style="text;html=1;align=center;verticalAlign=middle;resizable=0;points=[];autosize=1;strokeColor=none;" vertex="1" parent="1">
                    <mxGeometry x="290" y="520" width="40" height="20" as="geometry"/>
                </mxCell>
            </root>
        </mxGraphModel>
    </diagram>
</mxfile>